<svg xmlns="http://www.w3.org/2000/svg" xmlns:xlink="http://www.w3.org/1999/xlink" width="500" zoomAndPan="magnify" viewBox="0 0 375 374.999991" height="500" preserveAspectRatio="xMidYMid meet" version="1.0"><defs><clipPath id="d7b616a20d"><path d="M 49.304688 168 L 278.214844 168 L 278.214844 365.039062 L 49.304688 365.039062 Z M 49.304688 168 " clip-rule="nonzero"/></clipPath><clipPath id="837b0f7b13"><path d="M 106.105469 186.253906 L 368.199219 186.253906 L 368.199219 340.867188 L 106.105469 340.867188 Z M 106.105469 186.253906 " clip-rule="nonzero"/></clipPath><clipPath id="1a2d66e811"><path d="M 96 10.289062 L 326 10.289062 L 326 207 L 96 207 Z M 96 10.289062 " clip-rule="nonzero"/></clipPath></defs><path fill="#aeafae" d="M 34.90625 192.316406 C 40.261719 155.476562 58.390625 121.460938 85.953125 96.535156 C 101.25 82.703125 119.105469 71.945312 138.394531 64.855469 C 78.445312 78.421875 30.914062 128.464844 21.902344 190.425781 C 12.683594 253.820312 43.644531 314.515625 98.414062 344.421875 C 81.683594 332.058594 67.417969 316.5 56.5625 298.667969 C 37.242188 266.925781 29.550781 229.15625 34.90625 192.316406 " fill-opacity="1" fill-rule="nonzero"/><g clip-path="url(#d7b616a20d)"><path fill="#aeafae" d="M 115.398438 322.285156 C 86.175781 299.230469 65.785156 266.523438 57.980469 230.1875 C 53.597656 209.773438 53.257812 188.671875 56.898438 168.1875 C 37.707031 227.566406 56.972656 292.925781 107.261719 332.601562 C 134.15625 353.828125 166.4375 365.042969 200.621094 365.042969 C 227.925781 365.042969 254.789062 357.5625 278.078125 343.699219 C 258.105469 352.277344 236.496094 356.75 214.585938 356.75 C 178.273438 356.75 143.972656 344.832031 115.398438 322.285156 " fill-opacity="1" fill-rule="nonzero"/></g><g clip-path="url(#837b0f7b13)"><path fill="#aeafae" d="M 368.15625 186.503906 C 365.816406 207.171875 359.476562 227.308594 349.460938 245.625 C 331.636719 278.230469 302.773438 303.777344 268.195312 317.558594 C 249.164062 325.144531 229.214844 328.988281 208.902344 328.988281 C 182.550781 328.988281 156.292969 322.371094 132.964844 309.847656 C 123.425781 304.722656 114.476562 298.683594 106.199219 291.789062 C 134.605469 322.613281 174.8125 340.527344 217.25 340.527344 C 236.363281 340.527344 255.140625 336.90625 273.058594 329.765625 C 332.566406 306.050781 369.644531 248.890625 368.15625 186.503906 " fill-opacity="1" fill-rule="nonzero"/></g><path fill="#aeafae" d="M 320.75 79.882812 C 338.90625 111.335938 345.734375 146.996094 340.5 183.019531 C 335.140625 219.855469 317.011719 253.871094 289.453125 278.796875 C 273.96875 292.800781 255.863281 303.648438 236.308594 310.734375 C 297.324219 297.664062 344.285156 248.300781 353.5 184.910156 C 358.429688 151.003906 352.003906 117.433594 334.914062 87.828125 C 321.261719 64.183594 301.351562 44.65625 277.703125 31.417969 C 295.113281 44.425781 309.792969 60.90625 320.75 79.882812 " fill-opacity="1" fill-rule="nonzero"/><g clip-path="url(#1a2d66e811)"><path fill="#aeafae" d="M 260.003906 53.046875 C 276.089844 65.738281 289.394531 81.09375 299.546875 98.683594 C 312.726562 121.507812 320.121094 147.5625 320.941406 174.023438 C 321.277344 184.847656 320.519531 195.621094 318.6875 206.234375 C 331.179688 166.222656 326.585938 122.441406 305.367188 85.683594 C 295.8125 69.128906 283.285156 54.679688 268.144531 42.730469 C 241.25 21.507812 208.941406 10.289062 174.714844 10.289062 C 147.214844 10.289062 120.21875 17.847656 96.898438 31.84375 C 115.867188 23.632812 136.34375 19.109375 157.082031 18.628906 C 158.308594 18.597656 159.539062 18.585938 160.761719 18.585938 C 196.59375 18.585938 231.839844 30.824219 260.003906 53.046875 " fill-opacity="1" fill-rule="nonzero"/></g><path fill="#aeafae" d="M 166.738281 46.316406 C 183.464844 46.316406 199.972656 48.90625 215.808594 54.015625 C 235.601562 60.398438 253.980469 70.601562 269.851562 83.917969 C 241.511719 52.820312 201.101562 34.738281 158.289062 34.738281 C 139.160156 34.738281 120.382812 38.355469 102.484375 45.488281 C 70.65625 58.171875 44.804688 80.523438 27.710938 110.125 C 14.058594 133.773438 7.105469 160.785156 7.46875 187.882812 C 10.023438 166.296875 16.957031 145.347656 27.914062 126.371094 C 46.070312 94.917969 73.539062 71.167969 107.347656 57.695312 C 126.292969 50.144531 146.273438 46.316406 166.738281 46.316406 " fill-opacity="1" fill-rule="nonzero"/><path fill="#aeafae" d="M 184.335938 217.355469 C 184.335938 190.835938 187.796875 169.34375 187.796875 169.34375 C 187.796875 169.34375 191.253906 190.835938 191.253906 217.355469 C 191.253906 220.152344 191.214844 222.894531 191.144531 225.5625 C 198.699219 217.460938 216.4375 195.722656 216.4375 170.167969 C 216.4375 137.695312 187.796875 101.632812 187.796875 101.632812 C 187.796875 101.632812 159.152344 137.695312 159.152344 170.167969 C 159.152344 195.722656 176.890625 217.460938 184.445312 225.5625 C 184.378906 222.894531 184.335938 220.152344 184.335938 217.355469 " fill-opacity="1" fill-rule="nonzero"/><path fill="#aeafae" d="M 208.53125 257.53125 C 228.234375 239.789062 246.519531 227.976562 246.519531 227.976562 C 246.519531 227.976562 232.863281 244.933594 213.160156 262.671875 C 211.078125 264.546875 209.015625 266.351562 206.988281 268.085938 C 218.0625 268.277344 246.085938 266.914062 265.074219 249.8125 C 289.203125 228.085938 296.835938 182.667969 296.835938 182.667969 C 296.835938 182.667969 250.871094 185.515625 226.746094 207.242188 C 207.753906 224.339844 203.46875 252.066406 202.503906 263.105469 C 204.441406 261.265625 206.453125 259.40625 208.53125 257.53125 " fill-opacity="1" fill-rule="nonzero"/><path fill="#aeafae" d="M 167.058594 257.53125 C 147.355469 239.789062 129.070312 227.976562 129.070312 227.976562 C 129.070312 227.976562 142.726562 244.933594 162.429688 262.671875 C 164.511719 264.546875 166.574219 266.351562 168.601562 268.085938 C 157.527344 268.277344 129.507812 266.914062 110.515625 249.8125 C 86.386719 228.085938 78.753906 182.667969 78.753906 182.667969 C 78.753906 182.667969 124.714844 185.515625 148.84375 207.242188 C 167.835938 224.339844 172.121094 252.066406 173.085938 263.105469 C 171.148438 261.265625 169.140625 259.40625 167.058594 257.53125 " fill-opacity="1" fill-rule="nonzero"/></svg>